<?xml version="1.0" standalone="no"?>
<!DOCTYPE svg PUBLIC "-//W3C//DTD SVG 20010904//EN"
 "http://www.w3.org/TR/2001/REC-SVG-20010904/DTD/svg10.dtd">
<svg version="1.0" xmlns="http://www.w3.org/2000/svg"
 width="1280.000000pt" height="795.000000pt" viewBox="0 0 1280.000000 795.000000"
 preserveAspectRatio="xMidYMid meet">
<metadata>
Created by potrace 1.16, written by Peter Selinger 2001-2019
</metadata>
<g transform="translate(0.000000,795.000000) scale(0.100000,-0.100000)"
fill="currentColor" stroke="none">
<path d="M2883 7911 c-331 -138 -553 -406 -639 -771 -16 -69 -18 -180 -21
-1467 l-4 -1393 -1110 0 -1109 0 0 -225 0 -225 1114 0 1113 0 6 -1508 5 -1507
32 -90 c92 -258 253 -460 473 -591 118 -70 204 -103 304 -116 121 -16 7883
-24 8248 -8 280 11 322 19 493 86 227 90 377 188 553 364 199 198 321 400 415
686 l45 136 -4 2687 c-4 2976 1 2766 -70 2946 -102 261 -210 429 -389 607
-190 188 -476 357 -696 410 -35 9 -1138 12 -4357 15 l-4310 3 -92 -39z m6857
-3921 l0 -3561 -3232 4 c-2330 3 -3260 7 -3328 15 -114 14 -189 47 -274 122
-125 109 -194 213 -216 325 -8 40 -15 278 -20 695 -10 771 -11 3786 -1 4760
l7 705 26 73 c14 40 40 95 58 122 43 68 165 179 236 217 129 68 122 67 544 73
212 3 1693 7 3293 8 l2907 2 0 -3560z m1420 3550 c279 -10 368 -29 545 -114
312 -150 541 -430 644 -787 l31 -107 0 -2542 0 -2542 -30 -105 c-60 -204 -164
-397 -289 -535 -155 -171 -415 -315 -646 -359 -38 -7 -274 -13 -642 -16 l-583
-5 0 3561 0 3561 368 -1 c202 0 473 -4 602 -9z"/>
<path d="M4102 5558 c3 -477 3 -484 25 -525 64 -119 209 -155 321 -79 82 55
85 65 93 340 4 133 8 256 8 274 l1 32 1471 0 1472 0 327 -323 c199 -198 341
-330 365 -341 50 -24 158 -25 200 -3 74 38 117 116 117 210 0 48 -5 65 -28 99
-16 23 -197 212 -403 420 l-373 378 -1800 0 -1799 0 3 -482z"/>
<path d="M4245 3048 c-49 -18 -83 -47 -112 -96 l-28 -47 -3 -487 -3 -488 1794
0 1794 0 401 404 c446 450 436 437 414 543 -27 131 -129 199 -267 178 -58 -8
-107 -51 -486 -423 l-267 -262 -1465 0 -1464 0 -7 248 c-4 136 -12 266 -18
288 -13 54 -61 112 -112 135 -45 20 -124 24 -171 7z"/>
</g>
</svg>
