<?xml version="1.0" standalone="no"?>
<!DOCTYPE svg PUBLIC "-//W3C//DTD SVG 20010904//EN"
 "http://www.w3.org/TR/2001/REC-SVG-20010904/DTD/svg10.dtd">
<svg version="1.0" xmlns="http://www.w3.org/2000/svg"
 width="1200.000000pt" height="720.000000pt" viewBox="0 0 1200.000000 720.000000"
 preserveAspectRatio="xMidYMid meet">
<metadata>
Created by potrace 1.16, written by Peter Selinger 2001-2019
</metadata>
<g transform="translate(0.000000,720.000000) scale(0.100000,-0.100000)"
fill="currentColor" stroke="none">
<path d="M3115 7190 c-264 -14 -399 -80 -632 -307 -188 -183 -225 -275 -253
-618 -9 -121 -40 -1148 -40 -1351 l0 -92 -157 -6 c-408 -16 -518 -34 -578 -90
-42 -40 -55 -88 -55 -208 l0 -98 -257 0 c-371 -1 -724 -16 -812 -35 -196 -41
-279 -126 -316 -318 -21 -113 -22 -821 0 -932 16 -87 49 -165 89 -212 36 -42
133 -89 226 -109 89 -18 443 -33 813 -34 l257 0 0 -97 c0 -121 13 -169 55
-209 60 -56 170 -74 578 -90 l157 -6 0 -92 c0 -147 19 -850 30 -1111 12 -280
26 -434 46 -525 42 -187 394 -538 602 -600 149 -44 84 -43 3834 -47 l3577 -4
93 52 c150 84 237 147 335 242 183 177 282 366 299 571 4 47 12 94 19 103 10
13 39 18 151 25 264 14 420 70 557 198 89 83 163 187 223 315 l45 95 -3 214
-3 214 -53 104 c-91 179 -223 308 -407 398 -140 68 -194 81 -372 87 l-153 5 0
973 0 974 58 6 c386 44 539 96 686 235 108 102 175 206 222 344 22 63 24 86
24 252 0 172 -2 187 -26 256 -93 260 -313 453 -589 519 -47 11 -145 23 -217
28 -105 6 -133 11 -143 24 -7 9 -15 53 -19 97 -24 290 -260 615 -568 780 -100
54 -178 67 -462 80 -250 11 -6650 11 -6861 0z m503 -6796 c-9 -8 -432 30 -518
47 -187 36 -304 112 -388 252 -68 113 -78 275 -92 1467 -13 1121 -13 3505 0
3780 17 366 45 521 111 617 33 48 145 132 226 170 89 41 181 55 428 62 l230 6
3 -3199 c1 -1760 1 -3200 0 -3202z m4772 3209 l0 -3198 -872 3 c-1654 5 -3477
18 -3484 24 -9 10 -18 5948 -9 6150 6 133 10 168 22 172 76 29 888 41 3101 44
l1242 2 0 -3197z m785 3182 c99 -4 190 -8 203 -11 l22 -4 0 -3170 0 -3170 -22
-4 c-13 -3 -104 -7 -203 -11 -99 -3 -217 -8 -262 -12 l-83 -6 0 3203 0 3203
83 -6 c45 -4 163 -9 262 -12z m948 -15 c116 -29 190 -73 283 -165 70 -69 89
-95 132 -185 28 -58 54 -121 57 -141 12 -65 17 -64 -407 -67 l-378 -3 0 297 0
297 118 -6 c64 -4 152 -16 195 -27z m832 -989 l340 -7 68 -31 c82 -39 154
-110 194 -190 25 -51 28 -69 28 -153 0 -124 -18 -162 -143 -291 l-94 -99 -769
0 -769 0 0 380 0 380 38 1 c20 1 87 5 147 9 148 9 547 10 960 1z m-345 -2181
l0 -980 -400 0 -400 0 0 980 0 980 400 0 400 0 0 -980z m-8428 784 c4 -3 8
-356 8 -785 l0 -779 -187 0 -186 0 6 578 c4 317 7 673 7 791 l0 214 172 -7
c94 -4 175 -9 180 -12z m-782 -784 l0 -380 -485 0 -485 0 0 380 0 380 485 0
485 0 0 -380z m10049 -1515 c140 -144 155 -182 130 -335 -30 -187 -140 -293
-332 -319 -86 -12 -1151 -15 -1330 -4 l-107 6 0 379 0 378 768 0 769 0 102
-105z m-862 -1117 c16 -17 16 -21 -1 -75 -71 -228 -255 -414 -461 -467 -34 -8
-118 -19 -188 -22 l-127 -7 0 297 0 297 380 -3 c343 -3 381 -5 397 -20z"/>
</g>
</svg>
